<?xml version="1.0" encoding="utf-8" ?>
<svg baseProfile="full" height="400px" version="1.1" width="400px" xmlns="http://www.w3.org/2000/svg" xmlns:ev="http://www.w3.org/2001/xml-events" xmlns:xlink="http://www.w3.org/1999/xlink"><defs /><polygon clip-path="url(#border_clip)" fill="#ee82ee" fill-rule="evenodd" points="200.5,200.5 202.94717418524232,215.95084971874738 210.04915028125262,229.88926261462365 221.11073738537635,240.95084971874738 235.04915028125262,248.05282581475768 250.5,250.5 265.95084971874735,248.05282581475768 279.88926261462365,240.95084971874738 290.95084971874735,229.88926261462368 298.0528258147577,215.95084971874738 300.5,200.50000000000003 300.5,180.50000000000003 287.55904774487396,132.20370868554664 266.428134657839,177.5190980373791 245.29722157080403,132.20370868554662 232.35626931567796,180.5 211.22535622864302,135.1846106481675 198.28440397351696,183.4809019626209 200.0275188284701,203.40479592445578" stroke-width="0" /><polygon clip-path="url(#border_clip)" fill="#008000" fill-rule="evenodd" points="250.49999999999994,350.5 267.6829294886211,345.4334767086559 283.3076395654287,336.67042021629186 296.59064202406427,324.6502467667721 306.86587165626383,309.9756980487288 313.6180855426465,293.38261721046376 316.50869948415937,275.7030506118792 315.3927660276222,257.823525545669 298.20983653900106,262.890048837013 282.58512646219344,271.65310532937707 269.3021240035579,283.6732787788968 259.0268943713583,298.3478274969401 252.27468048497562,314.9409083352051 249.38406654346278,332.62047493378975 250.49999999999991,350.5" stroke-width="0" /><polyline clip-path="url(#border_clip)" fill="none" points="250.49999999999994,350.5 267.6829294886211,345.4334767086559 283.3076395654287,336.67042021629186 296.59064202406427,324.6502467667721 306.86587165626383,309.9756980487288 313.6180855426465,293.38261721046376 316.50869948415937,275.7030506118792 315.3927660276222,257.823525545669 298.20983653900106,262.890048837013 282.58512646219344,271.65310532937707 269.3021240035579,283.6732787788968 259.0268943713583,298.3478274969401 252.27468048497562,314.9409083352051 249.38406654346278,332.62047493378975 250.49999999999991,350.5" stroke="#008000" stroke-linecap="round" stroke-width="5" /><polyline clip-path="url(#border_clip)" fill="none" points="200.5,200.5 202.94717418524232,215.95084971874738 210.04915028125262,229.88926261462365 221.11073738537635,240.95084971874738 235.04915028125262,248.05282581475768 250.5,250.5 265.95084971874735,248.05282581475768 279.88926261462365,240.95084971874738 290.95084971874735,229.88926261462368 298.0528258147577,215.95084971874738 300.5,200.50000000000003 300.5,180.50000000000003 287.55904774487396,132.20370868554664 266.428134657839,177.5190980373791 245.29722157080403,132.20370868554662 232.35626931567796,180.5 211.22535622864302,135.1846106481675 198.28440397351696,183.4809019626209 200.0275188284701,203.40479592445578 250.5,250.5" stroke="#ee82ee" stroke-linecap="round" stroke-width="3" /><polyline clip-path="url(#border_clip)" fill="none" points="250.5,250.5 250.49999999999994,350.5" stroke="#008000" stroke-linecap="round" stroke-width="5" /><polyline clip-path="url(#border_clip)" fill="none" points="300.5,275.5 283.2638249795957,288.42952975522144 269.59476987684025,305.0853215893853 260.27628834544043,324.51273446331487 255.84247717174284,345.59826949331017" stroke="#90ee90" stroke-linecap="round" stroke-width="1" /></svg>